<svg t="1655365307592" class="player-controls-icon" viewBox="0 0 1024 1024" version="1.1"
    xmlns="http://www.w3.org/2000/svg" p-id="6667" width="24" height="24">
    <path fill="#ffffff"
        d="m141.04361,426.66667l0,170.66666c0,23.46667 19.2,42.66667 42.66667,42.66667l128,0l140.37333,140.37333c26.88,26.88 72.96,7.68 72.96,-30.29333l0,-476.58667c0,-37.97333 -46.08,-57.17333 -72.96,-30.29333l-140.37333,140.8l-128,0c-23.46667,0 -42.66667,19.2 -42.66667,42.66667zm576,85.33333a192,192 0 0 0 -106.66667,-171.94667l0,343.46667c63.14667,-31.14667 106.66667,-96 106.66667,-171.52z" />
    <g stroke="null">
        <g stroke="null"
            transform="matrix(0.023577325882169053,0,0,0.023577325882169053,-2.5802111352677457,-0.4227954069756379) ">
            <rect stroke="null" x="20565.485009" y="20471.25898" width="582" height="402"
                fill="none" />
        </g>
        <g stroke="null"
            transform="matrix(1.0006136631769564,0,0,1.0006136631769564,-20566.151143688643,-20575.30244282175) ">
            <path stroke="null"
                d="m20694.485009,21160.135034zm469.33333,-407.46666l0,8.53333c0,16.21333 10.66667,30.29333 25.6,36.26667c110.08,43.94666 187.73334,151.89333 187.73334,277.33333s-77.65334,233.38667 -187.73334,277.33333c-15.36,5.97334 -25.6,20.05334 -25.6,36.26667l0,8.53333c0,26.88 26.88,45.65334 51.62667,36.26667c144.64,-55.04 247.04,-194.56 247.04,-358.4s-102.4,-303.36 -247.04,-358.4c-24.74667,-9.81333 -51.62667,9.38667 -51.62667,36.26667z"
                fill-opacity="0.5" fill="#ffffff" />
        </g>
    </g>
</svg>