<svg t="1655114887825" class="player-controls-icon" viewBox="0 0 1024 1024" version="1.1"
    xmlns="http://www.w3.org/2000/svg" p-id="18260" width="24" height="24">
    <g>
        <rect x="-1" y="-1" width="1026" height="1026" fill="none" />
    </g>
    <g>
        <path
            d="m380,97.2l-161.8,0c-66.2,0 -120,53.8 -120,120l0,161.8c0,22.1 17.9,40 40,40s40,-17.9 40,-40l0,-144.4c-0.01199,-30.72452 26.01714,-57.53697 55.7,-57.4l146.1,0c22.1,0 40,-17.9 40,-40s-17.9,-40 -40,-40zm505.8,507.8c-22.1,0 -40,17.9 -40,40c0,48.13333 -0.03176,111.59892 0,144.4c0.03176,32.80108 -23.05908,57.404 -54.96651,57.5l-146.83349,0c-22.1,0 -40,17.9 -40,40s17.9,40 40,40l161.9,0c66.2,0 120,-53.8 120,-120l0,-161.9c-0.1,-22.1 -18,-40 -40.1,-40z" />
        <g stroke="null">
            <g stroke="null"
                transform="matrix(0.9957858808448392,0,0,0.9957858808448392,-3349.1231593465923,-3349.1463172975646) ">
                <rect stroke="null" x="2857.812198" y="3872.903436" width="1026" height="1026"
                    fill="none" />
            </g>
            <g stroke="null"
                transform="matrix(0.9957858808448392,0,0,0.9957858808448392,-3349.1231593465923,-3349.1463172975646) ">
                <path stroke="null"
                    d="m3077.012198,3971.103436zm588.6,1l-161.8,0c-22.1,0 -40,17.9 -40,40s17.9,40 40,40l144.4,0l-169.8,169.8c-15.6,15.6 -15.6,40.9 0,56.6c7.8,7.8 18,11.7 28.3,11.7c10.2,0 20.5,-3.9 28.3,-11.7l170.7,-170.7l0,146.1c0,22.1 17.9,40 40,40s40,-17.9 40,-40l0,-161.8c-0.1,-66.2 -53.9,-120 -120.1,-120z" />
                <path stroke="null"
                    d="m3077.012198,3971.103436zm588.6,1l-161.8,0c-22.1,0 -40,17.9 -40,40s17.9,40 40,40l144.4,0l-169.8,169.8c-15.6,15.6 -15.6,40.9 0,56.6c7.8,7.8 18,11.7 28.3,11.7c10.2,0 20.5,-3.9 28.3,-11.7l170.7,-170.7l0,146.1c0,22.1 17.9,40 40,40s40,-17.9 40,-40l0,-161.8c-0.1,-66.2 -53.9,-120 -120.1,-120z" />
            </g>
        </g>
        <g stroke="null">
            <g stroke="null"
                transform="matrix(0.9926195208669554,0,0,0.9926195208669554,-15173.84311031432,-15173.842709950044) ">
                <rect stroke="null" x="15798.520739" y="14779.091967" width="1026" height="1026"
                    fill="none" />
            </g>
            <g stroke="null"
                transform="matrix(0.9926195208669554,0,0,0.9926195208669554,-15173.84311031432,-15173.842709950044) ">
                <path stroke="null"
                    d="m16017.720739,14877.291967zm160.8,748.6l-144.4,0l169.8,-169.8c15.6,-15.6 15.6,-40.9 0,-56.6c-15.6,-15.6 -40.9,-15.6 -56.6,0l-170.6,170.7l0,-146.1c0,-22.1 -17.9,-40 -40,-40s-40,17.9 -40,40l0,161.9c0,66.2 53.8,120 120,120l161.8,0c22.1,0 40,-17.9 40,-40s-17.9,-40.1 -40,-40.1z" />
            </g>
        </g>
    </g>
</svg> 