<svg class="player-controls-icon" viewBox="0 -25 1024 1024" version="1.1"
    xmlns="http://www.w3.org/2000/svg"
    p-id="3417">
    <path
        d="M714.752 555.008h-112.64v-26.624h61.44c24.576 0 36.864-14.336 36.864-36.864v-147.456c0-34.816-20.48-38.912-32.768-38.912h-16.384c6.144-8.192 10.24-14.336 14.336-20.48 8.192-14.336 4.096-24.576-8.192-32.768-12.288-6.144-24.576-2.048-32.768 8.192-2.048 2.048-6.144 8.192-8.192 12.288-10.24 16.384-18.432 26.624-20.48 32.768H552.96c-8.192-14.336-18.432-30.72-28.672-47.104-8.192-10.24-20.48-12.288-32.768-6.144-12.288 8.192-16.384 20.48-8.192 32.768 4.096 4.096 8.192 12.288 14.336 22.528h-8.192c-12.288-2.048-20.48 2.048-26.624 6.144-6.144 6.144-8.192 16.384-8.192 28.672V491.52c0 12.288 2.048 22.528 8.192 28.672 6.144 6.144 16.384 8.192 26.624 8.192H552.96v28.672h-102.4c-4.096 0-8.192 0-12.288 6.144v-43.008c0-28.672-16.384-36.864-28.672-36.864h-51.2s-2.048-2.048 0-10.24l2.048-45.056c0-4.096 0-8.192 2.048-8.192H395.264c8.192 0 16.384-2.048 20.48-6.144 6.144-6.144 10.24-16.384 10.24-32.768V307.2c0-14.336-2.048-24.576-10.24-30.72-6.144-6.144-16.384-10.24-30.72-10.24h-65.536c-8.192 0-20.48 2.048-22.528 22.528 0 14.336 6.144 22.528 20.48 24.576h53.248c6.144 0 10.24 2.048 10.24 12.288v30.72c0 14.336-6.144 16.384-12.288 16.384h-22.528c-12.288 0-20.48 2.048-26.624 8.192-6.144 6.144-8.192 16.384-8.192 28.672l-2.048 86.016c0 10.24 2.048 20.48 8.192 24.576 6.144 6.144 14.336 8.192 24.576 8.192h40.96c4.096 0 6.144 0 6.144 2.048 2.048 2.048 4.096 4.096 2.048 14.336 0 2.048 0 8.192-2.048 16.384-2.048 43.008-6.144 59.392-8.192 65.536-6.144 12.288-26.624 6.144-43.008 0-18.432-6.144-26.624 2.048-32.768 10.24-6.144 14.336-2.048 26.624 12.288 32.768 47.104 16.384 79.872 14.336 100.352-8.192 6.144-6.144 14.336-20.48 18.432-67.584 4.096 6.144 10.24 8.192 14.336 8.192h102.4v69.632c0 6.144 2.048 20.48 24.576 20.48 14.336 0 22.528-8.192 22.528-20.48v-69.632h110.592c6.144 0 18.432-2.048 20.48-22.528 2.048-20.48-8.192-24.576-16.384-24.576z m-151.552-155.648h-65.536v-43.008c-2.048-10.24 2.048-14.336 12.288-12.288h53.248v55.296z m0 90.112h-53.248c-10.24 2.048-14.336-6.144-12.288-18.432v-34.816h65.536v53.248z m32.768-143.36h51.2c10.24-2.048 14.336 2.048 14.336 12.288v43.008h-65.536v-55.296z m0 88.064h65.536V471.04c0 10.24-6.144 16.384-16.384 16.384H593.92v-53.248zM724.992 145.408H299.008c-49.152 0-94.208 20.48-126.976 53.248l-6.144 6.144s-2.048 2.048-2.048 4.096c-24.576 30.72-40.96 69.632-40.96 112.64v288.768c0 96.256 77.824 176.128 176.128 176.128h106.496l83.968 83.968c6.144 6.144 14.336 8.192 22.528 8.192s16.384-2.048 22.528-8.192l83.968-83.968h106.496c96.256 0 176.128-77.824 176.128-176.128V321.536c0-98.304-77.824-176.128-176.128-176.128z m0 61.44c63.488 0 114.688 51.2 114.688 114.688v288.768c0 18.432-4.096 36.864-12.288 51.2L239.616 223.232c16.384-10.24 36.864-16.384 57.344-16.384h428.032z m-118.784 516.096c-4.096 0-8.192 0-10.24 2.048-4.096 2.048-8.192 4.096-10.24 6.144L512 804.864l-71.68-71.68c-2.048-2.048-6.144-6.144-10.24-6.144-4.096-2.048-8.192-2.048-10.24-2.048h-118.784c-63.488 0-114.688-51.2-114.688-114.688V321.536c0-18.432 4.096-36.864 12.288-53.248l587.776 438.272c-16.384 10.24-36.864 16.384-59.392 16.384h-120.832z"
        p-id="3418"></path>
</svg>