<svg t="1655361096742" class="icon" viewBox="100 50 924 924" version="1.1"
    xmlns="http://www.w3.org/2000/svg"
    p-id="22925" width="24" height="24">
    <path
        d="M685.237 808.447h-27.988c-33.594 0-56.016-27.988-56.016-55.996V310.049c0-33.594 28.008-55.996 56.016-55.996h27.988c33.594 0 56.016 28.008 56.016 55.996v436.816c5.585 33.594-22.423 61.582-56.016 61.582zM366.037 808.447h-27.988c-33.594 0-56.016-27.988-56.016-55.996V310.049c0-33.594 28.008-55.996 56.016-55.996h27.988c33.594 0 56.016 28.008 56.016 55.996v436.816c0 33.594-22.422 61.582-56.016 61.582z"
        p-id="22926" fill="#ffffff"></path>
</svg>