<svg class="player-controls-icon" t="1655361508905" viewBox="0 0 1024 1024"
    version="1.1" xmlns="http://www.w3.org/2000/svg" p-id="1800" width="32" height="32">
    <path
        d="M829.696 584.405333c-3.626667 3.712-17.28 19.584-29.994667 32.597334-74.538667 82.133333-311.765333 216.533333-413.568 257.536-15.445333 6.613333-54.528 20.565333-75.434666 21.461333a123.733333 123.733333 0 0 1-57.301334-13.952 119.893333 119.893333 0 0 1-50.858666-57.856c-6.4-16.853333-16.426667-67.2-16.426667-68.096C176.213333 701.013333 170.666667 611.456 170.666667 512.512c0-94.293333 5.504-180.181333 13.653333-236.117333 0.938667-0.853333 10.922667-63.445333 21.802667-84.906667C226.176 152.32 265.258667 128 307.072 128h3.626667c27.264 0.938667 84.565333 25.258667 84.565333 26.197333 96.298667 41.088 329.002667 168.874667 405.376 253.824 0 0 21.504 21.802667 30.890667 35.413334 14.549333 19.626667 21.802667 43.861333 21.802666 68.096 0 27.093333-8.149333 52.309333-23.637333 72.832z"
        p-id="1801" fill="rgba(0,0,0,0.6)"></path>
</svg>